# xmcd
# Track frame offsets:
# 150
# 16995
# 31985
# 47677
# 62742
# 77607
# 98585
# 117030
# 129067
# 144970
# 157297
# 172245
# 187540
# 204052
# 215395
# 230959
# 244260
# 257450
# 274410
# 292290
# 292607
# 309850
# 310327
#
# Disc length: 4359 seconds
# Revision: 0
# Processed by: cddbd v1.5.2PL0 Copyright (c) Steve Scherf et al.
# Submitted via: VisiTrax 2.10.3.257 - For more info visit www.synapsa.com
#
DISCID=3c110517
DTITLE=Various Artist - Sony New Release Sampler
DYEAR=1995
DGENRE=
TTITLE0=Dolly Parton - Crippled Bird
TTITLE1=Tim McGraw - She can't be really gone
TTITLE2=Sawyer Brown - Wantin and havin it all
TTITLE3=Carson, Jeff - Not on your love
TTITLE4=Diffie, Joe - Leroy the redneck reindeer           XMAS
TTITLE5=Hummon, Marcus - One of these days
TTITLE6=Raye, Colin - One boy one girl
TTITLE7=Casser-Daley, Troy - Texas Swing
TTITLE8=Chapin-Carpenter, Mary - Why walk when you can fly
TTITLE9=Blue Shadows, The - Coming on Strong
TTITLE10=Wallace, Ron - I'm listening now
TTITLE11=Herndon, Ty - I Want my goodbye back
TTITLE12=House, James - Anything for love
TTITLE13=Perfect Stranger - One more repossession
TTITLE14=Dallas Country Line - You're too good lookin' to stell be Lookin'
TTITLE15=Campbell, Stacy Dean - Honey I do
TTITLE16=Ketchum, Hal - Stay forever
TTITLE17=Loveless, Patty - Halfway Down
TTITLE18=Hayes, Wade - Don't Stop
TTITLE19=Intro - intro
TTITLE20=Stone, Doug - Born in the Dark
TTITLE21=Intro - Intro
TTITLE22=Rick Trevino - I want a girl in a pick up truck
EXTD=
EXTT0=
EXTT1=
EXTT2=
EXTT3=
EXTT4=
EXTT5=
EXTT6=
EXTT7=
EXTT8=
EXTT9=
EXTT10=
EXTT11=
EXTT12=
EXTT13=
EXTT14=
EXTT15=
EXTT16=
EXTT17=
EXTT18=
EXTT19=
EXTT20=
EXTT21=
EXTT22=
PLAYORDER=
